<svg width="40" height="40" viewBox="0 0 40 40" fill="none" xmlns="http://www.w3.org/2000/svg">
  <path d="M0 0H40V1H0V0Z" fill="currentColor" fill-opacity="0.05"/>
  <path d="M0 8H40V9H0V8Z" fill="currentColor" fill-opacity="0.05"/>
  <path d="M0 16H40V17H0V16Z" fill="currentColor" fill-opacity="0.05"/>
  <path d="M0 24H40V25H0V24Z" fill="currentColor" fill-opacity="0.05"/>
  <path d="M0 32H40V33H0V32Z" fill="currentColor" fill-opacity="0.05"/>
  <path d="M0 0H1V40H0V0Z" fill="currentColor" fill-opacity="0.05"/>
  <path d="M8 0H9V40H8V0Z" fill="currentColor" fill-opacity="0.05"/>
  <path d="M16 0H17V40H16V0Z" fill="currentColor" fill-opacity="0.05"/>
  <path d="M24 0H25V40H24V0Z" fill="currentColor" fill-opacity="0.05"/>
  <path d="M32 0H33V40H32V0Z" fill="currentColor" fill-opacity="0.05"/>
  <path d="M0 0H40V1H0V0Z" fill="currentColor" fill-opacity="0.05"/>
  <path d="M0 8H40V9H0V8Z" fill="currentColor" fill-opacity="0.05"/>
  <path d="M0 16H40V17H0V16Z" fill="currentColor" fill-opacity="0.05"/>
  <path d="M0 24H40V25H0V24Z" fill="currentColor" fill-opacity="0.05"/>
  <path d="M0 32H40V33H0V32Z" fill="currentColor" fill-opacity="0.05"/>
  <path d="M0 0H1V40H0V0Z" fill="currentColor" fill-opacity="0.05"/>
  <path d="M8 0H9V40H8V0Z" fill="currentColor" fill-opacity="0.05"/>
  <path d="M16 0H17V40H16V0Z" fill="currentColor" fill-opacity="0.05"/>
  <path d="M24 0H25V40H24V0Z" fill="currentColor" fill-opacity="0.05"/>
  <path d="M32 0H33V40H32V0Z" fill="currentColor" fill-opacity="0.05"/>
</svg>
